<svg width="20" height="20" viewBox="0 0 20 20" xmlns="http://www.w3.org/2000/svg" style="margin-right: 8px;" class="iconDashboard">
                                        <g clip-path="url(#clip0_569_7561)">
                                            <path
                                                d="M19.1667 18.3333H2.5C2.27899 18.3333 2.06702 18.2455 1.91074 18.0893C1.75446 17.933 1.66667 17.721 1.66667 17.5V0.833333C1.66667 0.61232 1.57887 0.400358 1.42259 0.244078C1.26631 0.0877974 1.05435 0 0.833333 0C0.61232 0 0.400358 0.0877974 0.244078 0.244078C0.0877974 0.400358 0 0.61232 0 0.833333L0 17.5C0 18.163 0.263392 18.7989 0.732233 19.2678C1.20107 19.7366 1.83696 20 2.5 20H19.1667C19.3877 20 19.5996 19.9122 19.7559 19.7559C19.9122 19.5996 20 19.3877 20 19.1667C20 18.9457 19.9122 18.7337 19.7559 18.5774C19.5996 18.4211 19.3877 18.3333 19.1667 18.3333Z"
                                                fill="black"
                                            />
                                            <path
                                                d="M12.5 16.6667C12.721 16.6667 12.933 16.5789 13.0893 16.4226C13.2456 16.2663 13.3334 16.0543 13.3334 15.8333V9.99999C13.3334 9.77898 13.2456 9.56701 13.0893 9.41073C12.933 9.25445 12.721 9.16666 12.5 9.16666C12.279 9.16666 12.067 9.25445 11.9108 9.41073C11.7545 9.56701 11.6667 9.77898 11.6667 9.99999V15.8333C11.6667 16.0543 11.7545 16.2663 11.9108 16.4226C12.067 16.5789 12.279 16.6667 12.5 16.6667Z"
                                                fill="black"
                                            />
                                            <path
                                                d="M5.83333 16.6667C6.05435 16.6667 6.26631 16.5789 6.42259 16.4226C6.57887 16.2663 6.66667 16.0543 6.66667 15.8333V9.99999C6.66667 9.77898 6.57887 9.56701 6.42259 9.41073C6.26631 9.25445 6.05435 9.16666 5.83333 9.16666C5.61232 9.16666 5.40036 9.25445 5.24408 9.41073C5.0878 9.56701 5 9.77898 5 9.99999V15.8333C5 16.0543 5.0878 16.2663 5.24408 16.4226C5.40036 16.5789 5.61232 16.6667 5.83333 16.6667Z"
                                                fill="black"
                                            />
                                            <path
                                                d="M15.8333 16.6667C16.0543 16.6667 16.2663 16.5789 16.4226 16.4226C16.5789 16.2663 16.6667 16.0543 16.6667 15.8333V5.83333C16.6667 5.61232 16.5789 5.40036 16.4226 5.24408C16.2663 5.0878 16.0543 5 15.8333 5C15.6123 5 15.4004 5.0878 15.2441 5.24408C15.0878 5.40036 15 5.61232 15 5.83333V15.8333C15 16.0543 15.0878 16.2663 15.2441 16.4226C15.4004 16.5789 15.6123 16.6667 15.8333 16.6667Z"
                                                fill="black"
                                            />
                                            <path
                                                d="M9.16665 16.6667C9.38766 16.6667 9.59962 16.5789 9.7559 16.4226C9.91218 16.2663 9.99998 16.0543 9.99998 15.8333V5.83333C9.99998 5.61232 9.91218 5.40036 9.7559 5.24408C9.59962 5.0878 9.38766 5 9.16665 5C8.94563 5 8.73367 5.0878 8.57739 5.24408C8.42111 5.40036 8.33331 5.61232 8.33331 5.83333V15.8333C8.33331 16.0543 8.42111 16.2663 8.57739 16.4226C8.73367 16.5789 8.94563 16.6667 9.16665 16.6667Z"
                                                fill="black"
                                            />
                                        </g>
                                        <defs>
                                            <clipPath id="clip0_569_7561">
                                                <rect width="20" height="20" fill="white" />
                                            </clipPath>
                                        </defs>
                                    </svg>
