 <svg width="10" height="10" viewBox="0 0 10 10" fill="none" xmlns="http://www.w3.org/2000/svg" style="margin-right: 8px;" class="iconDashboard">
                                                    <path
                                                        d="M5 10C4.0111 10 3.0444 9.70676 2.22215 9.15735C1.39991 8.60794 0.759043 7.82705 0.380605 6.91342C0.00216643 5.99979 -0.0968503 4.99446 0.0960758 4.02455C0.289002 3.05465 0.765206 2.16373 1.46447 1.46447C2.16373 0.765206 3.05465 0.289002 4.02455 0.0960758C4.99446 -0.0968503 5.99979 0.00216643 6.91342 0.380605C7.82705 0.759043 8.60794 1.39991 9.15735 2.22215C9.70676 3.0444 10 4.0111 10 5C9.99857 6.32564 9.47132 7.59658 8.53395 8.53395C7.59658 9.47132 6.32564 9.99857 5 10ZM5 0.833336C4.17591 0.833336 3.37033 1.07771 2.68513 1.53555C1.99992 1.99338 1.46587 2.64413 1.1505 3.40549C0.835139 4.16685 0.752625 5.00462 0.913397 5.81288C1.07417 6.62113 1.47101 7.36356 2.05372 7.94628C2.63644 8.529 3.37887 8.92584 4.18713 9.08661C4.99538 9.24738 5.83316 9.16487 6.59452 8.8495C7.35588 8.53414 8.00662 8.00008 8.46446 7.31488C8.9223 6.62967 9.16667 5.82409 9.16667 5C9.16546 3.89531 8.72608 2.8362 7.94494 2.05506C7.1638 1.27393 6.1047 0.834549 5 0.833336Z"
                                                        fill="black"
                                                    />
                                                </svg>
