<svg width="20" height="20" viewBox="0 0 20 20" fill="none" xmlns="http://www.w3.org/2000/svg">
<g clip-path="url(#clip0_569_7597)">
<path d="M17.9158 10.7767C19.1983 9.54011 19.9461 7.85078 19.9991 6.07C19.9991 1.35833 17.6933 0.85 16.7024 0.85C14.2291 0.85 11.7991 3.26667 10.0016 5.45083C8.21742 3.285 5.77992 0.85 3.29992 0.85C-0.157579 0.633333 -1.42258 7.57583 2.08742 10.7775C2.23409 10.9225 2.38659 11.0583 2.54075 11.1858C1.80693 11.8893 1.28399 12.7836 1.03077 13.768C0.777542 14.7525 0.80409 15.7881 1.10742 16.7583C1.24755 17.2358 1.49227 17.676 1.8238 18.047C2.15534 18.4181 2.56537 18.7106 3.02409 18.9033C3.46902 19.0937 3.95073 19.1827 4.43431 19.1638C4.91788 19.1449 5.39119 19.0186 5.81992 18.7942C7.05301 18.1547 8.18128 17.3308 9.16576 16.3508V18.3333C9.16576 18.5543 9.25355 18.7663 9.40983 18.9226C9.56611 19.0789 9.77808 19.1667 9.99909 19.1667C10.2201 19.1667 10.4321 19.0789 10.5883 18.9226C10.7446 18.7663 10.8324 18.5543 10.8324 18.3333V16.3508C11.8175 17.331 12.9466 18.1547 14.1808 18.7933C14.6094 19.0181 15.0827 19.1446 15.5663 19.1636C16.0499 19.1827 16.5316 19.0937 16.9766 18.9033C17.4352 18.7106 17.8451 18.4182 18.1767 18.0473C18.5082 17.6765 18.753 17.2364 18.8933 16.7592C19.2068 15.7877 19.2424 14.7479 18.9961 13.7573C18.7497 12.7667 18.2312 11.8647 17.4991 11.1533C17.6416 11.035 17.7808 10.91 17.9158 10.7767ZM9.16576 13.03C9.16576 14.2617 7.43242 16.065 5.04325 17.3183C4.83309 17.4297 4.60044 17.4921 4.36274 17.5007C4.12504 17.5094 3.88847 17.4641 3.67075 17.3683C3.43953 17.2708 3.23295 17.1229 3.06602 16.9355C2.8991 16.7482 2.77603 16.5259 2.70575 16.285C2.46632 15.5359 2.46311 14.7312 2.69656 13.9802C2.93001 13.2291 3.38882 12.5681 4.01076 12.0867C4.64154 12.3542 5.31892 12.4947 6.00409 12.5C7.08659 12.5149 8.16127 12.3146 9.16576 11.9108V13.03ZM9.16576 9.9875C8.22285 10.6036 7.10679 10.9002 5.98242 10.8333C5.46778 10.8218 4.96086 10.7058 4.49242 10.4923C4.02399 10.2789 3.60382 9.97245 3.25742 9.59167C2.29699 8.665 1.73002 7.40425 1.67409 6.07083C1.67409 3.8125 2.26825 2.5175 3.30325 2.5175C4.78742 2.51667 6.75409 4.04833 9.16576 7.07583V9.9875ZM10.8324 7.08333C13.2324 4.05833 15.2091 2.51667 16.7024 2.51667C17.7383 2.51667 18.3324 3.81167 18.3324 6.07C18.2763 7.40338 17.7094 8.66407 16.7491 9.59083C16.0498 10.3423 15.083 10.7886 14.0574 10.8333C12.9194 10.9 11.7897 10.6023 10.8324 9.98333V7.08333ZM17.2924 16.29C17.2223 16.531 17.0992 16.7533 16.9323 16.9407C16.7653 17.1281 16.5587 17.2759 16.3274 17.3733C16.1096 17.4689 15.873 17.514 15.6353 17.5052C15.3977 17.4964 15.165 17.434 14.9549 17.3225C12.5658 16.065 10.8324 14.2617 10.8324 13.03V11.9092C11.8384 12.3141 12.9148 12.515 13.9991 12.5C14.6944 12.4981 15.382 12.3535 16.0191 12.075C16.6445 12.5562 17.1035 13.2211 17.3319 13.9764C17.5602 14.7317 17.5464 15.5396 17.2924 16.2867V16.29ZM8.33242 1.66667C8.33242 1.22464 8.50802 0.800716 8.82058 0.488155C9.13314 0.175595 9.55706 0 9.99909 0C10.4411 0 10.865 0.175595 11.1776 0.488155C11.4902 0.800716 11.6658 1.22464 11.6658 1.66667C11.6658 2.10869 11.4902 2.53262 11.1776 2.84518C10.865 3.15774 10.4411 3.33333 9.99909 3.33333C9.55706 3.33333 9.13314 3.15774 8.82058 2.84518C8.50802 2.53262 8.33242 2.10869 8.33242 1.66667Z" fill="black"/>
</g>
<defs>
<clipPath id="clip0_569_7597">
<rect width="20" height="20" fill="white"/>
</clipPath>
</defs>
</svg>
