<svg width="20" height="20" viewBox="0 0 20 20" fill="none" xmlns="http://www.w3.org/2000/svg">
<path d="M10 6.66699C9.34075 6.66699 8.69629 6.86249 8.14812 7.22876C7.59996 7.59503 7.17272 8.11563 6.92042 8.72471C6.66813 9.3338 6.60212 10.004 6.73074 10.6506C6.85935 11.2972 7.17682 11.8912 7.643 12.3573C8.10917 12.8235 8.70312 13.141 9.34972 13.2696C9.99633 13.3982 10.6665 13.3322 11.2756 13.0799C11.8847 12.8276 12.4053 12.4004 12.7716 11.8522C13.1379 11.3041 13.3334 10.6596 13.3334 10.0003C13.3334 9.11627 12.9822 8.26842 12.357 7.6433C11.7319 7.01818 10.8841 6.66699 10 6.66699ZM10 11.667C9.67039 11.667 9.34815 11.5692 9.07407 11.3861C8.79999 11.203 8.58637 10.9427 8.46022 10.6381C8.33408 10.3336 8.30107 9.99848 8.36538 9.67518C8.42969 9.35187 8.58842 9.0549 8.82151 8.82181C9.0546 8.58873 9.35157 8.42999 9.67487 8.36568C9.99817 8.30137 10.3333 8.33438 10.6378 8.46053C10.9424 8.58667 11.2027 8.80029 11.3858 9.07438C11.5689 9.34846 11.6667 9.67069 11.6667 10.0003C11.6667 10.4424 11.4911 10.8663 11.1785 11.1788C10.866 11.4914 10.4421 11.667 10 11.667Z" fill="black"/>
<path d="M17.7422 11.5833L17.3722 11.37C17.5388 10.4637 17.5388 9.53463 17.3722 8.62833L17.7422 8.415C18.0268 8.25085 18.2762 8.03226 18.4762 7.77172C18.6763 7.51118 18.8231 7.21378 18.9082 6.89651C18.9933 6.57925 19.0151 6.24832 18.9723 5.92263C18.9296 5.59694 18.823 5.28286 18.6589 4.99833C18.4947 4.7138 18.2762 4.46439 18.0156 4.26434C17.7551 4.06428 17.4577 3.91751 17.1404 3.83239C16.8231 3.74726 16.4922 3.72547 16.1665 3.76824C15.8408 3.81101 15.5268 3.91751 15.2422 4.08167L14.8714 4.29583C14.171 3.69743 13.3661 3.23354 12.4972 2.9275V2.5C12.4972 1.83696 12.2338 1.20107 11.765 0.732233C11.2962 0.263392 10.6603 0 9.99723 0C9.33419 0 8.6983 0.263392 8.22946 0.732233C7.76062 1.20107 7.49723 1.83696 7.49723 2.5V2.9275C6.62839 3.23464 5.82377 3.69967 5.12389 4.29917L4.75139 4.08333C4.17676 3.75181 3.49396 3.66214 2.85321 3.83405C2.21246 4.00596 1.66625 4.42536 1.33473 5C1.00321 5.57464 0.913538 6.25743 1.08545 6.89818C1.25736 7.53893 1.67676 8.08515 2.25139 8.41667L2.62139 8.63C2.45482 9.5363 2.45482 10.4654 2.62139 11.3717L2.25139 11.585C1.67676 11.9165 1.25736 12.4627 1.08545 13.1035C0.913538 13.7442 1.00321 14.427 1.33473 15.0017C1.66625 15.5763 2.21246 15.9957 2.85321 16.1676C3.49396 16.3395 4.17676 16.2499 4.75139 15.9183L5.12223 15.7042C5.82287 16.3027 6.62805 16.7666 7.49723 17.0725V17.5C7.49723 18.163 7.76062 18.7989 8.22946 19.2678C8.6983 19.7366 9.33419 20 9.99723 20C10.6603 20 11.2962 19.7366 11.765 19.2678C12.2338 18.7989 12.4972 18.163 12.4972 17.5V17.0725C13.3661 16.7654 14.1707 16.3003 14.8706 15.7008L15.2431 15.9158C15.8177 16.2474 16.5005 16.337 17.1412 16.1651C17.782 15.9932 18.3282 15.5738 18.6597 14.9992C18.9913 14.4245 19.0809 13.7417 18.909 13.101C18.7371 12.4602 18.3177 11.914 17.7431 11.5825L17.7422 11.5833ZM15.6189 8.43667C15.9011 9.45922 15.9011 10.5391 15.6189 11.5617C15.5696 11.7396 15.5809 11.9289 15.6508 12.0998C15.7208 12.2707 15.8456 12.4135 16.0056 12.5058L16.9089 13.0275C17.1004 13.138 17.2402 13.3201 17.2974 13.5336C17.3547 13.7472 17.3248 13.9747 17.2143 14.1662C17.1038 14.3578 16.9217 14.4975 16.7082 14.5548C16.4946 14.6121 16.2671 14.5822 16.0756 14.4717L15.1706 13.9483C15.0105 13.8556 14.8241 13.8188 14.6408 13.8437C14.4574 13.8686 14.2876 13.9538 14.1581 14.0858C13.4163 14.843 12.4819 15.3833 11.4556 15.6483C11.2764 15.6944 11.1177 15.7987 11.0044 15.9449C10.8911 16.0911 10.8296 16.2709 10.8297 16.4558V17.5C10.8297 17.721 10.7419 17.933 10.5857 18.0893C10.4294 18.2455 10.2174 18.3333 9.99639 18.3333C9.77538 18.3333 9.56342 18.2455 9.40714 18.0893C9.25086 17.933 9.16306 17.721 9.16306 17.5V16.4567C9.16315 16.2717 9.10171 16.092 8.9884 15.9458C8.87509 15.7996 8.71637 15.6952 8.53723 15.6492C7.51085 15.3831 6.57667 14.8416 5.83556 14.0833C5.706 13.9513 5.53618 13.8661 5.35286 13.8412C5.16954 13.8163 4.98315 13.8531 4.82306 13.9458L3.91973 14.4683C3.82492 14.5239 3.72005 14.5602 3.61117 14.5751C3.50228 14.59 3.39152 14.5832 3.28527 14.5551C3.17902 14.527 3.07938 14.4782 2.99208 14.4114C2.90478 14.3446 2.83154 14.2613 2.77659 14.1661C2.72164 14.0709 2.68606 13.9658 2.67189 13.8568C2.65773 13.7479 2.66526 13.6372 2.69405 13.5311C2.72285 13.425 2.77234 13.3257 2.83967 13.2389C2.90701 13.152 2.99086 13.0793 3.08639 13.025L3.98973 12.5033C4.14969 12.411 4.27446 12.2682 4.34444 12.0973C4.41443 11.9264 4.42567 11.7371 4.3764 11.5592C4.09419 10.5366 4.09419 9.45672 4.3764 8.43417C4.42478 8.25657 4.41301 8.06795 4.34291 7.89774C4.27281 7.72754 4.14832 7.58534 3.98889 7.49333L3.08556 6.97167C2.89405 6.86116 2.75429 6.6791 2.69701 6.46555C2.63973 6.25199 2.66964 6.02442 2.78014 5.83292C2.89065 5.64141 3.07271 5.50164 3.28627 5.44437C3.49982 5.38709 3.72739 5.41699 3.91889 5.5275L4.82389 6.05083C4.98354 6.14376 5.16955 6.18101 5.35267 6.15672C5.53579 6.13244 5.70565 6.048 5.83556 5.91667C6.5773 5.15945 7.51175 4.61918 8.53806 4.35417C8.71776 4.30797 8.87689 4.20313 8.99026 4.05625C9.10362 3.90938 9.16473 3.72887 9.1639 3.54333V2.5C9.1639 2.27899 9.25169 2.06702 9.40797 1.91074C9.56425 1.75446 9.77621 1.66667 9.99723 1.66667C10.2182 1.66667 10.4302 1.75446 10.5865 1.91074C10.7428 2.06702 10.8306 2.27899 10.8306 2.5V3.54333C10.8305 3.7283 10.8919 3.90804 11.0052 4.05423C11.1185 4.20043 11.2773 4.30478 11.4564 4.35083C12.4831 4.61679 13.4176 5.15824 14.1589 5.91667C14.2885 6.04872 14.4583 6.13391 14.6416 6.15881C14.8249 6.1837 15.0113 6.14689 15.1714 6.05417L16.0747 5.53167C16.1695 5.47609 16.2744 5.43981 16.3833 5.42492C16.4922 5.41003 16.6029 5.41683 16.7092 5.44492C16.8154 5.47301 16.9151 5.52184 17.0024 5.58859C17.0897 5.65535 17.1629 5.73872 17.2179 5.83389C17.2728 5.92907 17.3084 6.03417 17.3226 6.14316C17.3367 6.25214 17.3292 6.36285 17.3004 6.46891C17.2716 6.57497 17.2221 6.67429 17.1548 6.76114C17.0875 6.848 17.0036 6.92068 16.9081 6.975L16.0047 7.49667C15.8456 7.58892 15.7215 7.73123 15.6517 7.90141C15.5819 8.07159 15.5704 8.26008 15.6189 8.4375V8.43667Z" fill="black"/>
</svg>
