<?xml version="1.0" encoding="UTF-8"?>
<svg viewBox="0 0 224 68" version="1.1" xmlns="http://www.w3.org/2000/svg" xmlns:xlink="http://www.w3.org/1999/xlink">
    <!-- Generator: Sketch 64 (93537) - https://sketch.com -->
    <title>03 Heartland Retail - Color</title>
    <desc>Created with Sketch.</desc>
    <g id="Page-1" stroke="none" stroke-width="1" fill="none" fill-rule="evenodd">
        <g id="03-Heartland-Retail---Color">
            <g id="Group" transform="translate(0.000000, 22.000000)" fill="#CD2027" fill-rule="nonzero">
                <polygon id="Path" points="13.81 0.23 13.81 9.28 5.26 9.28 5.26 0.23 0.41 0.23 0.41 22.87 5.26 22.87 5.26 12.94 13.87 12.94 13.87 22.87 18.72 22.87 18.72 0.23"></polygon>
                <g transform="translate(20.000000, 2.000000)">
                    <path d="M5.06,11.23 C5.15,9.38 6,7.69 8.03,7.69 C10.72,7.69 10.79,10.51 10.79,11.23 L5.06,11.23 Z M15.52,14.14 C15.58,12.82 15.65,10.51 14.58,8.35 C13.14,5.41 10.45,4.53 8.19,4.53 C6.47,4.53 4.96,5.03 3.74,5.85 C1.08,7.7 0.45,10.77 0.45,13.33 C0.45,15.87 1.04,18 2.49,19.5 C4.15,21.22 6.72,21.47 8.06,21.47 C10.38,21.47 12.44,20.84 13.6,19.62 C14.88,18.27 15.04,16.93 15.1,16.18 L10.87,16.18 C10.43,17.93 9.27,18.37 8.11,18.37 C4.88,18.37 4.88,15.18 4.88,14.14 L15.52,14.14 Z" id="Shape"></path>
                    <path d="M26.43,13.42 C26.43,15.11 26.37,16.33 25.55,17.33 C25.11,17.83 24.42,18.24 23.58,18.24 C22.05,18.24 21.33,17.05 21.33,15.99 C21.33,14.11 23.45,13.17 26.43,13.42 M31.22,20.87 C30.94,19.55 30.84,18.21 30.84,16.86 L30.81,10.5 C30.81,9.78 30.78,7.9 29.71,6.62 C28.14,4.8 25.39,4.58 24.07,4.58 C22.57,4.58 20.72,4.83 19.28,5.86 C17.62,7.05 17.53,8.74 17.5,9.59 L22.04,9.59 C22.04,9.21 22.04,8.71 22.38,8.18 C22.79,7.59 23.48,7.3 24.13,7.3 C24.57,7.3 25.79,7.46 26.2,8.62 C26.39,9.18 26.42,9.68 26.42,10.72 C24.89,10.72 22.1,10.72 20.16,11.6 C17.25,12.95 16.81,15.26 16.81,16.52 C16.81,17.77 17.25,19.06 18.19,20 C18.82,20.59 19.85,21.25 22.13,21.25 C23.01,21.25 25.1,21.25 26.86,18.71 C26.86,19.18 26.86,19.9 27.02,20.87 L31.22,20.87 Z" id="Shape"></path>
                    <path d="M33.05,20.87 L37.68,20.87 L37.68,13.07 C37.68,11.1 37.96,8.69 42.66,9.12 L42.66,4.96 C38.9,4.77 37.87,6.68 37.27,8.03 L37.18,5 L32.83,5 C32.92,5.91 33.05,8.19 33.05,8.95 L33.05,20.87 L33.05,20.87 Z" id="Path"></path>
                    <path d="M52.3,17.61 C51.74,17.67 51.42,17.7 50.73,17.7 C48.66,17.7 48.66,16.79 48.63,15.35 L48.63,8.21 L52.39,8.21 L52.39,5.14 L48.63,5.14 L48.63,0.35 L44.03,2.04 L44.03,5.14 L44.03,8.21 L44.03,16.88 C44.03,18.2 44.03,21.14 48.7,21.14 C49.45,21.14 50.8,21.05 52.3,20.64 L52.3,17.61 L52.3,17.61 Z" id="Path"></path>
                </g>
                <rect id="Rectangle" x="73.94" y="0.23" width="4.63" height="22.64"></rect>
                <g transform="translate(80.000000, 0.000000)">
                    <path d="M9.72,15.42 C9.72,17.11 9.66,18.33 8.84,19.33 C8.4,19.83 7.71,20.24 6.87,20.24 C5.34,20.24 4.62,19.05 4.62,17.99 C4.62,16.11 6.75,15.17 9.72,15.42 M14.51,22.87 C14.23,21.55 14.13,20.21 14.13,18.86 L14.1,12.5 C14.1,11.78 14.07,9.9 13,8.62 C11.43,6.8 8.68,6.58 7.36,6.58 C5.86,6.58 4.01,6.83 2.57,7.86 C0.91,9.05 0.82,10.74 0.79,11.59 L5.33,11.59 C5.33,11.21 5.33,10.71 5.67,10.18 C6.08,9.59 6.77,9.3 7.42,9.3 C7.86,9.3 9.08,9.46 9.49,10.62 C9.68,11.18 9.71,11.68 9.71,12.72 C8.18,12.72 5.39,12.72 3.45,13.6 C0.54,14.95 0.1,17.26 0.1,18.52 C0.1,19.77 0.54,21.06 1.48,22 C2.11,22.59 3.14,23.25 5.42,23.25 C6.3,23.25 8.39,23.25 10.15,20.71 C10.15,21.18 10.15,21.9 10.31,22.87 L14.51,22.87 Z" id="Shape"></path>
                    <path d="M16.05,22.87 L20.72,22.87 L20.72,13.6 C20.72,12.38 21,11.6 21.28,11.19 C21.78,10.44 22.69,9.97 23.69,9.97 C24.88,9.97 25.6,10.63 25.94,11.32 C26.19,11.82 26.19,12.38 26.19,13.04 L26.19,22.87 L30.92,22.87 L30.92,14.32 C30.92,11.38 30.83,10.56 30.48,9.59 C30.07,8.49 28.76,6.62 25.66,6.62 C22.22,6.62 20.96,8.66 20.53,9.38 L20.4,7 L15.95,7 C16.04,8.1 16.04,9.82 16.04,9.88 L16.04,22.87 L16.05,22.87 Z" id="Path"></path>
                    <path d="M37.28,15.2 C37.28,13.6 37.62,9.88 40.72,9.88 C42.82,9.88 44.16,11.57 44.16,14.67 C44.16,15.45 44.1,17.08 43.41,18.4 C42.91,19.37 41.81,20.18 40.47,20.18 C38.15,20.18 37.28,17.83 37.28,15.2 M44.01,9 C43.6,8.44 42.41,6.84 39.56,6.84 C35.43,6.84 32.58,10.1 32.58,15.33 C32.58,20.28 35.08,23.19 39.31,23.19 C40,23.19 41.22,23.13 42.38,22.38 C43.35,21.75 43.66,21.16 43.98,20.6 L44.11,22.89 L48.81,22.89 C48.75,22.3 48.68,21.26 48.68,20.32 L48.68,0.26 L44.01,0.26 L44.01,9 Z" id="Shape"></path>
                </g>
            </g>
            <line x1="143.5" y1="0.73" x2="143.5" y2="67.74" id="Path" stroke="#A7A8AA" stroke-width="0.3384"></line>
            <g id="Group" transform="translate(158.000000, 22.000000)" fill="#53575A" fill-rule="nonzero">
                <path d="M2.27,22.95 L0.2,22.95 L0.2,0.02 L7.7,0.02 C9.7,0.02 11.35,0.15 13.1,1.23 C14.69,2.18 15.45,3.83 15.45,6.03 C15.45,8.51 13.7,10.29 11.03,10.95 L11.03,11.01 C13.95,11.49 14.59,13.46 14.87,16.13 C15.28,19.85 15.16,21.56 16.08,22.96 L13.7,22.96 C13.16,21.44 13.03,19.81 12.91,18.19 C12.43,12.95 12.12,12.03 7.95,12.03 L2.26,12.03 L2.26,22.95 L2.27,22.95 Z M6.69,10.12 C9.61,10.12 13.23,9.93 13.23,6.02 C13.23,1.6 9.1,1.92 6.91,1.92 L2.27,1.92 L2.27,10.12 L6.69,10.12 L6.69,10.12 Z" id="Shape"></path>
                <path d="M19.24,15.42 C19.3,18.82 20.86,21.68 24.77,21.68 C27.03,21.68 28.9,20.06 29.38,17.87 L31.38,17.87 C30.39,21.68 28.01,23.43 24.17,23.43 C19.41,23.43 17.18,19.33 17.18,14.98 C17.18,10.66 19.56,6.53 24.3,6.53 C29.64,6.53 31.58,10.44 31.58,15.43 L19.24,15.43 L19.24,15.42 Z M29.5,13.68 C29.28,10.6 27.63,8.28 24.32,8.28 C21.21,8.28 19.55,10.88 19.3,13.68 L29.5,13.68 Z" id="Shape"></path>
                <path d="M35.25,8.75 L32.07,8.75 L32.07,7 L35.25,7 L35.25,3.6 L37.16,2.77 L37.16,6.99 L40.78,6.99 L40.78,8.74 L37.16,8.74 L37.16,19.41 C37.13,20.87 37.89,21.67 39.35,21.67 C39.92,21.67 40.49,21.64 41,21.48 L41,23.13 C40.4,23.29 39.7,23.42 39.06,23.42 C35.02,23.42 35.25,20.85 35.25,18.69 L35.25,8.75 Z" id="Path"></path>
                <path d="M52.85,11.71 C52.66,9.1 51.33,8.28 49.07,8.28 C47.07,8.28 45.42,8.88 45.16,11.04 L43.13,11.04 C43.61,7.77 46.05,6.53 49.1,6.53 C52.63,6.53 54.82,8.15 54.76,11.8 L54.76,19.36 C54.73,20.6 54.86,21.87 54.92,22.95 L52.95,22.95 L52.89,20.6 L52.83,20.6 L52.73,20.82 C52.03,22.15 49.9,23.43 47.74,23.43 C44.78,23.43 42.43,21.62 42.43,18.51 C42.43,16.35 43.73,14.7 45.64,13.9 C47.77,12.98 50.53,13.3 52.85,13.17 L52.85,11.71 Z M48.09,21.68 C52.25,21.68 53.05,18.25 52.86,14.91 C50.16,15 44.5,14.5 44.5,18.5 C44.5,20.67 46.15,21.68 48.09,21.68 Z" id="Shape"></path>
                <path d="M59.91,2.4 L57.69,2.4 L57.69,0.02 L59.91,0.02 L59.91,2.4 Z M59.75,7.01 L59.75,22.96 L57.84,22.96 L57.84,7.01 L59.75,7.01 Z" id="Shape"></path>
                <polygon id="Path" points="65.53 22.95 63.62 22.95 63.62 0.02 65.53 0.02"></polygon>
            </g>
        </g>
    </g>
</svg>