<svg width="255" height="68" viewBox="0 0 255 68" fill="none" xmlns="http://www.w3.org/2000/svg">
<g clip-path="url(#clip0_318_2500)">
<path d="M57.7409 54.508C57.3192 54.9074 56.7679 55.1016 56.076 55.1016H53.9787C53.9787 55.1016 53.903 55.0908 53.8814 55.0585C53.8598 55.0261 53.8381 54.9937 53.8381 54.9613V46.9308C53.8381 46.9308 53.8489 46.8553 53.8814 46.8337C53.9138 46.8121 53.9462 46.7905 53.9787 46.7905H55.8598C56.6165 46.7905 57.2003 46.9848 57.6328 47.3626C58.0652 47.7404 58.2706 48.3016 58.2706 49.0248C58.2706 49.8451 57.9787 50.428 57.4057 50.7734C57.3625 50.795 57.3625 50.8166 57.3841 50.8489C57.6976 51.0432 57.9355 51.3131 58.1084 51.6477C58.2814 51.9823 58.3679 52.3816 58.3679 52.835C58.3679 53.5689 58.1517 54.1302 57.7301 54.5188L57.7409 54.508ZM55.2219 48.0318V50.2445C55.2219 50.2445 55.2435 50.2985 55.2868 50.2985H55.8922C56.2165 50.2985 56.476 50.2013 56.649 50.007C56.8327 49.8128 56.9192 49.5321 56.9192 49.1651C56.9192 48.7981 56.8327 48.4959 56.649 48.2908C56.4652 48.0858 56.2165 47.9778 55.8922 47.9778H55.2868C55.2868 47.9778 55.2219 47.9994 55.2219 48.0426V48.0318ZM56.7246 53.5689C56.9084 53.3423 56.9949 53.0293 56.9949 52.6299C56.9949 52.2305 56.9084 51.8959 56.7246 51.6585C56.5409 51.421 56.2922 51.3023 55.9787 51.3023H55.2868C55.2868 51.3023 55.2219 51.3239 55.2219 51.367V53.8388C55.2219 53.8388 55.2435 53.8928 55.2868 53.8928H55.9787C56.2922 53.8928 56.5409 53.7848 56.7246 53.5581V53.5689Z" fill="#58595B"/>
<path d="M65.1787 47.9347C65.1787 47.9347 65.1138 47.9778 65.0814 47.9778H62.5084C62.5084 47.9778 62.4543 47.9994 62.4543 48.0426V50.2877C62.4543 50.2877 62.476 50.3416 62.5084 50.3416H64.0327C64.0327 50.3416 64.1084 50.3524 64.13 50.3848C64.1517 50.4172 64.1733 50.4496 64.1733 50.482V51.3994C64.1733 51.3994 64.1625 51.475 64.13 51.4966C64.0976 51.5181 64.0652 51.5397 64.0327 51.5397H62.5084C62.5084 51.5397 62.4543 51.5613 62.4543 51.6045V53.8604C62.4543 53.8604 62.476 53.9143 62.5084 53.9143H65.0814C65.0814 53.9143 65.1571 53.9251 65.1787 53.9575C65.2003 53.9899 65.2219 54.0223 65.2219 54.0547V54.9613C65.2219 54.9613 65.2111 55.0369 65.1787 55.0585C65.1463 55.0801 65.1138 55.1016 65.0814 55.1016H61.2111C61.2111 55.1016 61.1354 55.0908 61.1138 55.0585C61.0922 55.0261 61.0706 54.9937 61.0706 54.9613V46.9308C61.0706 46.9308 61.0814 46.8553 61.1138 46.8337C61.1462 46.8121 61.1787 46.7905 61.2111 46.7905H65.0814C65.0814 46.7905 65.1571 46.8013 65.1787 46.8337C65.2111 46.8661 65.2219 46.8985 65.2219 46.9308V47.8375C65.2219 47.8375 65.2111 47.9131 65.1787 47.9347Z" fill="#58595B"/>
<path d="M68.4004 54.6052C68.0004 54.2058 67.795 53.6877 67.795 53.0509V52.7379C67.795 52.7379 67.8058 52.6623 67.8382 52.6407C67.8707 52.6191 67.9031 52.5975 67.9355 52.5975H69.0166C69.0166 52.5975 69.0923 52.6083 69.1139 52.6407C69.1356 52.6731 69.1572 52.7055 69.1572 52.7379V52.9753C69.1572 53.2883 69.2329 53.5366 69.3842 53.7201C69.5356 53.9036 69.741 54.0007 69.9896 54.0007C70.2383 54.0007 70.4329 53.9144 70.595 53.7309C70.7572 53.5474 70.8329 53.3207 70.8329 53.0293C70.8329 52.8242 70.7896 52.6407 70.7031 52.4896C70.6166 52.3385 70.4869 52.1982 70.3356 52.0579C70.1734 51.9283 69.9247 51.734 69.5788 51.475C69.1788 51.1944 68.8653 50.9353 68.6166 50.7194C68.3788 50.4928 68.1734 50.2337 68.0112 49.9207C67.8491 49.6077 67.7626 49.2407 67.7626 48.8306C67.7626 48.1721 67.9572 47.654 68.3572 47.2655C68.7572 46.8769 69.2761 46.6826 69.9247 46.6826C70.5734 46.6826 71.1139 46.8877 71.5139 47.2979C71.914 47.708 72.1194 48.2477 72.1194 48.9169V49.1975C72.1194 49.1975 72.1085 49.2731 72.0761 49.2947C72.0437 49.3163 72.0112 49.3379 71.9788 49.3379H70.9085C70.9085 49.3379 70.8329 49.3271 70.8112 49.2947C70.7896 49.2623 70.768 49.2299 70.768 49.1975V48.8845C70.768 48.5715 70.6923 48.3233 70.541 48.1398C70.3896 47.9563 70.1842 47.8591 69.9247 47.8591C69.6869 47.8591 69.4923 47.9455 69.341 48.1182C69.1896 48.2909 69.1139 48.5283 69.1139 48.8198C69.1139 49.1112 69.2004 49.3487 69.3626 49.5429C69.5247 49.7372 69.8491 50.0179 70.3248 50.3633C70.8112 50.7194 71.1788 51.0109 71.4166 51.2375C71.6545 51.4642 71.8491 51.7125 71.9896 51.9823C72.1194 52.2521 72.195 52.576 72.195 52.9429C72.195 53.6121 71.9896 54.1626 71.5896 54.562C71.1896 54.9613 70.6491 55.1772 70.0004 55.1772C69.3518 55.1772 68.8112 54.9829 68.4112 54.5836L68.4004 54.6052Z" fill="#58595B"/>
<path d="M79.2437 46.8337C79.2437 46.8337 79.287 46.8985 79.287 46.9308V47.8375C79.287 47.8375 79.2762 47.9131 79.2437 47.9347C79.2113 47.967 79.1789 47.9778 79.1464 47.9778H77.6329C77.6329 47.9778 77.5788 47.9994 77.5788 48.0426V54.9721C77.5788 54.9721 77.568 55.0477 77.5356 55.0693C77.5032 55.0908 77.4707 55.1124 77.4383 55.1124H76.3464C76.3464 55.1124 76.2707 55.1016 76.2491 55.0693C76.2275 55.0369 76.2059 55.0045 76.2059 54.9721V48.0426C76.2059 48.0426 76.1842 47.9778 76.1518 47.9778H74.7248C74.7248 47.9778 74.6491 47.967 74.6275 47.9347C74.6059 47.9023 74.5842 47.8699 74.5842 47.8375V46.9308C74.5842 46.9308 74.595 46.8553 74.6275 46.8337C74.6599 46.8121 74.6923 46.7905 74.7248 46.7905H79.1572C79.1572 46.7905 79.2329 46.8013 79.2545 46.8337H79.2437Z" fill="#58595B"/>
<path d="M89.6762 47.082C90.0005 47.2871 90.2491 47.5785 90.4221 47.9455C90.6059 48.3233 90.6924 48.7442 90.6924 49.2191C90.6924 49.9315 90.5086 50.5036 90.1302 50.9461C89.7518 51.3779 89.2545 51.6045 88.6383 51.6045H87.6221C87.6221 51.6045 87.568 51.6261 87.568 51.6585V54.9614C87.568 54.9614 87.5572 55.0369 87.5248 55.0585C87.4924 55.0801 87.4599 55.1017 87.4275 55.1017H86.3356C86.3356 55.1017 86.2599 55.0909 86.2383 55.0585C86.2167 55.0261 86.1951 54.9938 86.1951 54.9614V46.9201C86.1951 46.9201 86.2059 46.8445 86.2383 46.823C86.2707 46.8014 86.3032 46.7798 86.3356 46.7798H88.5735C88.9951 46.7798 89.3626 46.8877 89.687 47.0928L89.6762 47.082ZM89.0491 50.1798C89.2329 49.9531 89.3194 49.6509 89.3194 49.2623C89.3194 48.8738 89.2329 48.5499 89.0491 48.3233C88.8654 48.0966 88.6383 47.9671 88.3464 47.9671H87.6329C87.6329 47.9671 87.5789 47.9887 87.5789 48.0318V50.4712C87.5789 50.4712 87.6005 50.5252 87.6329 50.5252H88.3464C88.6383 50.5252 88.8762 50.4065 89.0491 50.1906V50.1798Z" fill="#58595B"/>
<path d="M93.46 55.0585C93.46 55.0585 93.4167 54.9937 93.4167 54.9613V46.9308C93.4167 46.9308 93.4276 46.8553 93.46 46.8337C93.4924 46.8121 93.5249 46.7905 93.5573 46.7905H94.6492C94.6492 46.7905 94.7249 46.8013 94.7465 46.8337C94.7789 46.8661 94.7897 46.8985 94.7897 46.9308V53.8604C94.7897 53.8604 94.8113 53.9143 94.8546 53.9143H97.4276C97.4276 53.9143 97.5033 53.9251 97.5249 53.9575C97.5465 53.9899 97.5681 54.0223 97.5681 54.0547V54.9613C97.5681 54.9613 97.5573 55.0369 97.5249 55.0585C97.4924 55.0801 97.46 55.1016 97.4276 55.1016H93.5573C93.5573 55.1016 93.4816 55.0908 93.46 55.0585Z" fill="#58595B"/>
<path d="M103.676 54.9721L103.449 53.7201C103.449 53.7201 103.428 53.6661 103.374 53.6661H101.633C101.633 53.6661 101.557 53.6877 101.557 53.7201L101.33 54.9721C101.33 55.0585 101.265 55.1016 101.179 55.1016H100.098C99.9898 55.1016 99.9466 55.0477 99.9682 54.9505L101.73 46.9201C101.752 46.8337 101.795 46.7905 101.882 46.7905H103.147C103.233 46.7905 103.287 46.8337 103.298 46.9201L105.06 54.9505V54.9937C105.06 55.0693 105.017 55.1016 104.93 55.1016H103.828C103.73 55.1016 103.676 55.0585 103.676 54.9721ZM101.849 52.5867H103.168C103.168 52.5867 103.233 52.5651 103.233 52.5327L102.541 48.7766C102.541 48.7766 102.52 48.7442 102.509 48.7442C102.487 48.7442 102.476 48.755 102.476 48.7766L101.795 52.5327C101.795 52.5327 101.806 52.5867 101.86 52.5867H101.849Z" fill="#58595B"/>
<path d="M107.947 54.5835C107.536 54.1734 107.33 53.6337 107.33 52.9645V48.9169C107.33 48.2369 107.536 47.6972 107.947 47.2978C108.357 46.8984 108.898 46.6934 109.568 46.6934C110.238 46.6934 110.801 46.8984 111.211 47.2978C111.622 47.6972 111.828 48.2369 111.828 48.9169V49.0572C111.828 49.0572 111.817 49.1327 111.784 49.1651C111.752 49.1975 111.72 49.2083 111.687 49.2083L110.584 49.2515C110.487 49.2515 110.444 49.2083 110.444 49.1111V48.8197C110.444 48.5391 110.368 48.3124 110.206 48.1397C110.044 47.967 109.838 47.8807 109.579 47.8807C109.32 47.8807 109.114 47.967 108.963 48.1397C108.801 48.3124 108.725 48.5391 108.725 48.8197V53.0724C108.725 53.353 108.801 53.5797 108.963 53.7524C109.125 53.9251 109.33 54.0115 109.579 54.0115C109.828 54.0115 110.055 53.9251 110.206 53.7524C110.368 53.5797 110.444 53.353 110.444 53.0724V52.7702C110.444 52.7702 110.455 52.6946 110.487 52.673C110.52 52.6515 110.552 52.6299 110.584 52.6299L111.687 52.673C111.687 52.673 111.763 52.6838 111.784 52.7162C111.806 52.7486 111.828 52.781 111.828 52.8134V52.9537C111.828 53.6229 111.622 54.1734 111.211 54.5727C110.801 54.9829 110.249 55.188 109.568 55.188C108.887 55.188 108.357 54.9829 107.947 54.5727V54.5835Z" fill="#58595B"/>
<path d="M118.801 47.9347C118.801 47.9347 118.736 47.9778 118.703 47.9778H116.13C116.13 47.9778 116.065 47.9994 116.065 48.0426V50.2877C116.065 50.2877 116.087 50.3416 116.13 50.3416H117.655C117.655 50.3416 117.73 50.3524 117.752 50.3848C117.774 50.4172 117.795 50.4496 117.795 50.482V51.3994C117.795 51.3994 117.784 51.475 117.752 51.4966C117.72 51.5181 117.687 51.5397 117.655 51.5397H116.13C116.13 51.5397 116.065 51.5613 116.065 51.6045V53.8604C116.065 53.8604 116.087 53.9143 116.13 53.9143H118.703C118.703 53.9143 118.779 53.9251 118.801 53.9575C118.822 53.9899 118.844 54.0223 118.844 54.0547V54.9613C118.844 54.9613 118.833 55.0369 118.801 55.0585C118.768 55.0801 118.736 55.1016 118.703 55.1016H114.833C114.833 55.1016 114.757 55.0908 114.736 55.0585C114.714 55.0261 114.693 54.9937 114.693 54.9613V46.9308C114.693 46.9308 114.703 46.8553 114.736 46.8337C114.768 46.8121 114.801 46.7905 114.833 46.7905H118.703C118.703 46.7905 118.779 46.8013 118.801 46.8337C118.833 46.8661 118.844 46.8985 118.844 46.9308V47.8375C118.844 47.8375 118.833 47.9131 118.801 47.9347Z" fill="#58595B"/>
<path d="M127.244 55.0477C127.244 55.0477 127.201 54.9829 127.201 54.9505V51.6369L125.536 46.9524C125.536 46.9416 125.525 46.9201 125.525 46.8985C125.525 46.8229 125.568 46.7905 125.655 46.7905H126.801C126.887 46.7905 126.941 46.8337 126.963 46.9093L127.849 49.9639C127.849 49.9639 127.871 49.9962 127.882 49.9962C127.893 49.9962 127.914 49.9855 127.914 49.9639L128.801 46.9093C128.822 46.8337 128.876 46.7905 128.963 46.7905H130.109C130.109 46.7905 130.195 46.8013 130.217 46.8337C130.239 46.8661 130.249 46.8985 130.228 46.9632L128.574 51.6477V51.7232L128.563 54.9613C128.563 55.0045 128.552 55.0369 128.52 55.0585C128.487 55.0801 128.455 55.1016 128.422 55.1016H127.33C127.33 55.1016 127.255 55.0908 127.233 55.0585L127.244 55.0477Z" fill="#58595B"/>
<path d="M133.298 54.5835C132.876 54.1734 132.671 53.6229 132.671 52.9429V48.9492C132.671 48.2692 132.876 47.7188 133.298 47.3086C133.72 46.8984 134.26 46.6934 134.941 46.6934C135.622 46.6934 136.174 46.8984 136.595 47.3086C137.017 47.7188 137.222 48.2692 137.222 48.9492V52.9429C137.222 53.6229 137.017 54.1734 136.595 54.5835C136.174 54.9937 135.622 55.1988 134.941 55.1988C134.26 55.1988 133.709 54.9937 133.298 54.5835ZM135.601 53.7308C135.763 53.5473 135.849 53.2991 135.849 52.9969V48.8845C135.849 48.5823 135.763 48.3448 135.601 48.1505C135.439 47.967 135.212 47.8699 134.941 47.8699C134.671 47.8699 134.455 47.967 134.293 48.1505C134.13 48.334 134.044 48.5823 134.044 48.8845V52.9969C134.044 53.2991 134.13 53.5365 134.293 53.7308C134.455 53.9251 134.671 54.0115 134.941 54.0115C135.212 54.0115 135.428 53.9143 135.601 53.7308Z" fill="#58595B"/>
<path d="M140.725 54.5404C140.314 54.0978 140.109 53.515 140.109 52.8026V46.9308C140.109 46.9308 140.12 46.8553 140.152 46.8337C140.185 46.8121 140.217 46.7905 140.249 46.7905H141.341C141.341 46.7905 141.417 46.8013 141.439 46.8337C141.471 46.8661 141.482 46.8985 141.482 46.9308V52.9429C141.482 53.2559 141.558 53.515 141.72 53.7201C141.882 53.9251 142.087 54.0115 142.347 54.0115C142.606 54.0115 142.822 53.9143 142.974 53.7201C143.136 53.5258 143.212 53.2667 143.212 52.9429V46.9308C143.212 46.9308 143.222 46.8553 143.255 46.8337C143.287 46.8121 143.32 46.7905 143.352 46.7905H144.444C144.444 46.7905 144.52 46.8013 144.541 46.8337C144.574 46.8661 144.585 46.8985 144.585 46.9308V52.8026C144.585 53.5258 144.379 54.0978 143.968 54.5404C143.558 54.9829 143.017 55.1988 142.336 55.1988C141.655 55.1988 141.103 54.9829 140.703 54.5404H140.725Z" fill="#58595B"/>
<path d="M152.26 54.5835C151.85 54.1734 151.644 53.6337 151.644 52.9645V48.9169C151.644 48.2369 151.85 47.6972 152.26 47.2978C152.671 46.8984 153.212 46.6934 153.882 46.6934C154.552 46.6934 155.114 46.8984 155.525 47.2978C155.936 47.6972 156.141 48.2369 156.141 48.9169V49.0572C156.141 49.0572 156.131 49.1327 156.098 49.1651C156.066 49.1975 156.033 49.2083 156.001 49.2083L154.898 49.2515C154.801 49.2515 154.758 49.2083 154.758 49.1111V48.8197C154.758 48.5391 154.682 48.3124 154.52 48.1397C154.358 47.967 154.152 47.8807 153.893 47.8807C153.633 47.8807 153.428 47.967 153.277 48.1397C153.114 48.3124 153.039 48.5391 153.039 48.8197V53.0724C153.039 53.353 153.114 53.5797 153.277 53.7524C153.439 53.9251 153.644 54.0115 153.893 54.0115C154.141 54.0115 154.368 53.9251 154.52 53.7524C154.682 53.5797 154.758 53.353 154.758 53.0724V52.7702C154.758 52.7702 154.769 52.6946 154.801 52.673C154.833 52.6515 154.866 52.6299 154.898 52.6299L156.001 52.673C156.001 52.673 156.077 52.6838 156.098 52.7162C156.12 52.7486 156.141 52.781 156.141 52.8134V52.9537C156.141 53.6229 155.936 54.1734 155.525 54.5727C155.114 54.9829 154.563 55.188 153.882 55.188C153.201 55.188 152.66 54.9829 152.26 54.5727V54.5835Z" fill="#58595B"/>
<path d="M162.142 54.9721L161.914 53.7201C161.914 53.7201 161.893 53.6661 161.839 53.6661H160.098C160.098 53.6661 160.023 53.6877 160.023 53.7201L159.796 54.9721C159.796 55.0585 159.741 55.1016 159.644 55.1016H158.563C158.455 55.1016 158.412 55.0477 158.433 54.9505L160.196 46.9201C160.217 46.8337 160.26 46.7905 160.347 46.7905H161.612C161.698 46.7905 161.752 46.8337 161.763 46.9201L163.525 54.9505V54.9937C163.525 55.0693 163.482 55.1016 163.396 55.1016H162.293C162.196 55.1016 162.142 55.0585 162.142 54.9721ZM160.314 52.5867H161.633C161.633 52.5867 161.698 52.5651 161.687 52.5327L160.996 48.7766C160.996 48.7766 160.974 48.7442 160.963 48.7442C160.942 48.7442 160.931 48.755 160.931 48.7766L160.25 52.5327C160.25 52.5327 160.26 52.5867 160.304 52.5867H160.314Z" fill="#58595B"/>
<path d="M169.547 46.8338C169.547 46.8338 169.612 46.7906 169.644 46.7906H170.725C170.725 46.7906 170.801 46.8014 170.823 46.8338C170.844 46.8661 170.866 46.8985 170.866 46.9309V54.9614C170.866 54.9614 170.855 55.0369 170.823 55.0585C170.79 55.0909 170.758 55.1017 170.725 55.1017H169.471C169.396 55.1017 169.342 55.0585 169.32 54.983L167.547 49.9423C167.547 49.9423 167.525 49.9099 167.504 49.9099C167.482 49.9099 167.471 49.9315 167.471 49.9531V54.9506C167.471 54.9506 167.471 55.0261 167.439 55.0477C167.406 55.0693 167.374 55.0909 167.341 55.0909H166.26C166.26 55.0909 166.185 55.0801 166.163 55.0477C166.141 55.0153 166.12 54.983 166.12 54.9506V46.9201C166.12 46.9201 166.131 46.8445 166.163 46.823C166.196 46.8014 166.228 46.7798 166.26 46.7798H167.482C167.558 46.7798 167.612 46.823 167.633 46.8985L169.417 51.896C169.417 51.896 169.439 51.9284 169.46 51.9284C169.482 51.9284 169.493 51.9068 169.493 51.8852V46.9201C169.493 46.9201 169.504 46.8445 169.536 46.823L169.547 46.8338Z" fill="#58595B"/>
<path d="M182.477 46.8337C182.477 46.8337 182.52 46.8985 182.52 46.9308V47.8375C182.52 47.8375 182.509 47.9131 182.477 47.9347C182.444 47.9562 182.412 47.9778 182.379 47.9778H180.866C180.866 47.9778 180.812 47.9994 180.812 48.0426V54.9721C180.812 54.9721 180.801 55.0477 180.769 55.0693C180.736 55.0908 180.704 55.1124 180.671 55.1124H179.579C179.579 55.1124 179.504 55.1016 179.482 55.0693C179.46 55.0369 179.439 55.0045 179.439 54.9721V48.0426C179.439 48.0426 179.417 47.9778 179.374 47.9778H177.947C177.947 47.9778 177.871 47.967 177.85 47.9347C177.828 47.9023 177.806 47.8699 177.806 47.8375V46.9308C177.806 46.9308 177.817 46.8553 177.85 46.8337C177.882 46.8121 177.915 46.7905 177.947 46.7905H182.39C182.39 46.7905 182.466 46.8013 182.488 46.8337H182.477Z" fill="#58595B"/>
<path d="M188.412 54.9829L187.396 51.5721C187.396 51.5721 187.363 51.5289 187.342 51.5289H186.715C186.715 51.5289 186.661 51.5505 186.661 51.5829V54.9613C186.661 54.9613 186.65 55.0369 186.617 55.0585C186.585 55.0801 186.552 55.1016 186.52 55.1016H185.428C185.428 55.1016 185.352 55.0908 185.331 55.0585C185.309 55.0261 185.288 54.9937 185.288 54.9613V46.9308C185.288 46.9308 185.298 46.8553 185.331 46.8337C185.363 46.8121 185.396 46.7905 185.428 46.7905H187.666C188.088 46.7905 188.455 46.8877 188.78 47.0928C189.104 47.2978 189.352 47.5785 189.525 47.9454C189.709 48.3124 189.796 48.7334 189.796 49.2083C189.796 49.6832 189.698 50.1258 189.515 50.482C189.331 50.8381 189.061 51.108 188.715 51.2915C188.682 51.2915 188.671 51.3239 188.682 51.367L189.85 54.9397C189.85 54.9397 189.861 54.9721 189.861 55.0045C189.861 55.0801 189.817 55.1124 189.731 55.1124H188.585C188.509 55.1124 188.455 55.0693 188.434 54.9937L188.412 54.9829ZM186.65 48.0318V50.3956C186.65 50.3956 186.671 50.4604 186.704 50.4604H187.428C187.709 50.4604 187.947 50.3524 188.12 50.1258C188.304 49.9099 188.39 49.6077 188.39 49.2191C188.39 48.8305 188.304 48.5391 188.12 48.3124C187.936 48.0858 187.709 47.9778 187.428 47.9778H186.704C186.704 47.9778 186.65 47.9994 186.65 48.0426V48.0318Z" fill="#58595B"/>
<path d="M193.104 54.5404C192.693 54.0978 192.488 53.515 192.488 52.8026V46.9308C192.488 46.9308 192.498 46.8553 192.531 46.8337C192.563 46.8121 192.596 46.7905 192.628 46.7905H193.72C193.72 46.7905 193.796 46.8013 193.817 46.8337C193.85 46.8661 193.861 46.8985 193.861 46.9308V52.9429C193.861 53.2559 193.936 53.515 194.098 53.7201C194.261 53.9251 194.466 54.0115 194.725 54.0115C194.985 54.0115 195.201 53.9143 195.352 53.7201C195.515 53.5258 195.59 53.2667 195.59 52.9429V46.9308C195.59 46.9308 195.601 46.8553 195.634 46.8337C195.666 46.8121 195.698 46.7905 195.731 46.7905H196.823C196.823 46.7905 196.898 46.8013 196.92 46.8337C196.952 46.8661 196.963 46.8985 196.963 46.9308V52.8026C196.963 53.5258 196.758 54.0978 196.347 54.5404C195.936 54.9829 195.396 55.1988 194.715 55.1988C194.034 55.1988 193.482 54.9829 193.082 54.5404H193.104Z" fill="#58595B"/>
<path d="M200.38 54.6052C199.98 54.2058 199.774 53.6877 199.774 53.0509V52.7379C199.774 52.7379 199.785 52.6623 199.817 52.6407C199.85 52.6191 199.882 52.5975 199.915 52.5975H200.996C200.996 52.5975 201.071 52.6083 201.093 52.6407C201.115 52.6731 201.136 52.7055 201.136 52.7379V52.9753C201.136 53.2883 201.212 53.5366 201.363 53.7201C201.515 53.9144 201.72 54.0007 201.969 54.0007C202.217 54.0007 202.412 53.9144 202.574 53.7309C202.736 53.5474 202.812 53.3207 202.812 53.0293C202.812 52.8242 202.769 52.6407 202.682 52.4896C202.596 52.3385 202.477 52.1982 202.315 52.0579C202.153 51.9175 201.904 51.734 201.558 51.475C201.158 51.1944 200.844 50.9353 200.596 50.7194C200.358 50.4928 200.153 50.2337 199.99 49.9207C199.828 49.6077 199.742 49.2407 199.742 48.8306C199.742 48.1721 199.936 47.654 200.336 47.2655C200.736 46.8769 201.255 46.6826 201.904 46.6826C202.553 46.6826 203.093 46.8877 203.493 47.2979C203.893 47.708 204.098 48.2477 204.098 48.9169V49.1975C204.098 49.1975 204.088 49.2731 204.055 49.2947C204.023 49.3271 203.99 49.3379 203.958 49.3379H202.888C202.888 49.3379 202.812 49.3271 202.79 49.2947C202.769 49.2623 202.747 49.2299 202.747 49.1975V48.8845C202.747 48.5715 202.671 48.3233 202.52 48.1398C202.369 47.9563 202.163 47.8591 201.904 47.8591C201.666 47.8591 201.471 47.9455 201.32 48.1182C201.169 48.2909 201.093 48.5283 201.093 48.8198C201.093 49.1112 201.18 49.3487 201.342 49.5429C201.504 49.7372 201.828 50.0179 202.304 50.3633C202.79 50.7194 203.158 51.0109 203.396 51.2375C203.634 51.4642 203.828 51.7125 203.969 51.9823C204.109 52.2521 204.174 52.576 204.174 52.9429C204.174 53.6121 203.969 54.1626 203.569 54.562C203.169 54.9721 202.628 55.1772 201.98 55.1772C201.331 55.1772 200.79 54.9829 200.39 54.5836L200.38 54.6052Z" fill="#58595B"/>
<path d="M211.223 46.8337C211.223 46.8337 211.266 46.8985 211.266 46.9308V47.8375C211.266 47.8375 211.255 47.9131 211.223 47.9347C211.19 47.9562 211.158 47.9778 211.125 47.9778H209.612C209.612 47.9778 209.558 47.9994 209.558 48.0426V54.9721C209.558 54.9721 209.547 55.0477 209.515 55.0693C209.482 55.0908 209.45 55.1124 209.417 55.1124H208.325C208.325 55.1124 208.25 55.1016 208.228 55.0693C208.207 55.0369 208.185 55.0045 208.185 54.9721V48.0426C208.185 48.0426 208.163 47.9778 208.12 47.9778H206.693C206.693 47.9778 206.617 47.967 206.596 47.9347C206.574 47.9023 206.552 47.8699 206.552 47.8375V46.9308C206.552 46.9308 206.563 46.8553 206.596 46.8337C206.628 46.8121 206.661 46.7905 206.693 46.7905H211.136C211.136 46.7905 211.212 46.8013 211.234 46.8337H211.223Z" fill="#58595B"/>
<path d="M53.8381 16.9138H69.968L70.5734 21.0154H58.5841V26.1748H68.0761V30.1252H58.5841V38.1773H53.8381V16.9138Z" fill="#F36F21"/>
<path d="M73.2437 31.809V16.9246H89.9789L90.5843 21.0261H77.9896V25.4623H88.087V29.4128H77.9896V31.3557C77.9896 33.1798 78.9302 34.0865 81.0059 34.0865H90.8978L90.2924 38.1881H79.7626C75.5356 38.1881 73.2545 36.1481 73.2545 31.809H73.2437Z" fill="#F36F21"/>
<path d="M94.1411 31.809V16.9246H98.8871V31.3557C98.8871 33.1798 99.8276 34.0865 101.903 34.0865H110.639L110.033 38.1881H100.66C96.433 38.1881 94.1519 36.1481 94.1519 31.809H94.1411Z" fill="#F36F21"/>
<path d="M113.222 16.9138H117.968V38.1773H113.222V16.9138Z" fill="#F36F21"/>
<path d="M136.974 38.1881L131.341 29.9525L125.655 38.1881H120.022L128.293 27.1893L120.682 16.9246H126.552L131.514 24.3614L136.563 16.9246H142.163L134.498 27.1354L142.833 38.1881H136.963H136.974Z" fill="#F36F21"/>
<path d="M144.152 27.5563C144.152 20.3246 147.731 16.9246 155.331 16.9246C162.931 16.9246 166.487 20.3246 166.487 27.5563C166.487 34.7881 162.909 38.1881 155.331 38.1881C147.752 38.1881 144.152 34.7881 144.152 27.5563ZM161.752 27.5563C161.752 23.0122 159.893 21.0585 155.331 21.0585C150.768 21.0585 148.877 23.0122 148.877 27.5563C148.877 32.1004 150.768 34.0541 155.331 34.0541C159.893 34.0541 161.752 32.1004 161.752 27.5563Z" fill="#254435"/>
<path d="M170.033 17.2161H185.709L186.304 21.1989H174.65V26.218H183.882V30.0605H174.65V37.8859H170.033V17.2161Z" fill="#254435"/>
<path d="M189.061 17.2161H204.736L205.331 21.1989H193.677V26.218H202.909V30.0605H193.677V37.8859H189.061V17.2161Z" fill="#254435"/>
<path d="M208.088 17.2161H212.704V37.8859H208.088V17.2161Z" fill="#254435"/>
<path d="M216.25 27.5564C216.25 20.5297 219.796 17.2161 227.342 17.2161H233.234L233.828 21.1989H227.353C223.039 21.1989 220.996 23.2389 220.996 27.5456C220.996 31.8523 223.039 33.8923 227.353 33.8923H233.828L233.234 37.8751H227.342C219.796 37.8751 216.25 34.5723 216.25 27.5348V27.5564Z" fill="#254435"/>
<path d="M236.899 31.6904V17.2161H253.169L253.764 21.1989H241.515V25.5056H251.331V29.3481H241.515V31.237C241.515 33.0072 242.434 33.8923 244.445 33.8923H254.056L253.461 37.8751H243.223C239.115 37.8751 236.888 35.8999 236.888 31.6688L236.899 31.6904Z" fill="#254435"/>
<path d="M29.7948 1.30611V9.6604C29.7948 10.0058 29.6542 10.3404 29.4164 10.5779L2.21623 37.7239C1.3946 38.5442 0 37.9613 0 36.8064V28.4521C0 28.1067 0.140541 27.7721 0.378381 27.5347L27.5785 0.37786C28.4002 -0.442457 29.7948 0.1404 29.7948 1.29532V1.30611Z" fill="url(#paint0_linear_318_2500)"/>
<path d="M29.7948 29.6503V38.0046C29.7948 38.35 29.6542 38.6846 29.4164 38.922L2.21623 66.0789C1.3946 66.8992 0 66.3163 0 65.1614V56.8071C0 56.4617 0.140541 56.1271 0.378381 55.8897L27.5785 28.7328C28.4002 27.9125 29.7948 28.4954 29.7948 29.6503Z" fill="url(#paint1_linear_318_2500)"/>
<path d="M42.5948 2.70938V11.0637C42.5948 11.4091 42.4542 11.7437 42.2164 11.9811L14.8865 39.2675C14.0649 40.0878 12.6703 39.5049 12.6703 38.35V29.9957C12.6703 29.6503 12.8108 29.3157 13.0487 29.0783L40.3786 1.79192C41.2002 0.971605 42.5948 1.55446 42.5948 2.70938Z" fill="url(#paint2_linear_318_2500)"/>
<path d="M42.5948 31.0534V39.4077C42.5948 39.7531 42.4542 40.0877 42.2164 40.3251L14.8865 67.6115C14.0649 68.4318 12.6703 67.8489 12.6703 66.694V58.3397C12.6703 57.9943 12.8108 57.6597 13.0487 57.4223L40.3786 30.1359C41.2002 29.3156 42.5948 29.8985 42.5948 31.0534Z" fill="url(#paint3_linear_318_2500)"/>
</g>
<defs>
<linearGradient id="paint0_linear_318_2500" x1="0.0216213" y1="33.9029" x2="30.1035" y2="3.77307" gradientUnits="userSpaceOnUse">
<stop stop-color="#F9A67B"/>
<stop offset="1" stop-color="#F36F21"/>
</linearGradient>
<linearGradient id="paint1_linear_318_2500" x1="0.11892" y1="62.1608" x2="29.9957" y2="32.2363" gradientUnits="userSpaceOnUse">
<stop stop-color="#F9A67B"/>
<stop offset="1" stop-color="#F36F21"/>
</linearGradient>
<linearGradient id="paint2_linear_318_2500" x1="15.3946" y1="32.7373" x2="44.4511" y2="3.63448" gradientUnits="userSpaceOnUse">
<stop stop-color="#254435"/>
<stop offset="1" stop-color="#1B9355"/>
</linearGradient>
<linearGradient id="paint3_linear_318_2500" x1="12.6811" y1="63.8013" x2="42.5579" y2="33.8768" gradientUnits="userSpaceOnUse">
<stop stop-color="#254435"/>
<stop offset="1" stop-color="#1B9355"/>
</linearGradient>
<clipPath id="clip0_318_2500">
<rect width="254.056" height="68" fill="white"/>
</clipPath>
</defs>
</svg>
